<svg xmlns="http://www.w3.org/2000/svg" xmlns:xlink="http://www.w3.org/1999/xlink" viewBox="0 0 573.69 217.68">
    <defs>
        <style>
            .cls-1{fill:none;}.cls-2{clip-path:url(#clip-path);}.cls-3{fill:#FFFFFF;}.cls-4{fill:#FFFFFF;}
        </style>
        <clipPath id="clip-path" transform="translate(-0.01 -0.02)">
            <rect class="cls-1" width="573.66" height="217.69"/>
        </clipPath>
    </defs>

    <g id="Ebene_2" data-name="Ebene 2">
        <g id="Ebene_1-2" data-name="Ebene 1">
            <g class="cls-2">
                <path class="cls-3" d="M105.62,176.41l.35-.06c0-.5-.15-1.49-.2-2h-.4a5.64,5.64,0,0,1,.25,2m4.69-38.29c.35-.2.44-1.32.13-1.19s-.12.8-.13,1.19m.41-1.68c.44.14,1-.92.61-.8a.93.93,0,0,0-.61.8m71.55,10.21a16.17,16.17,0,1,0-16.21,16.21,16.17,16.17,0,0,0,16.21-16.21M108.13,161.8c.58-.2.67.51.67.92-.27,0-.55.07-.81.08a2.14,2.14,0,0,1,.15-1m97.28-53c0,55.09-44,99.75-98.4,99.75a96.87,96.87,0,0,1-49.54-13.66.69.69,0,0,0,.56-.2,4.87,4.87,0,0,0-.06-.76c-.27.08-.52.2-.79.28a2.14,2.14,0,0,1,.14-1c.78.15,1.51.17.88-1.12.66.09,1.69-.48,1.7.6a6.68,6.68,0,0,1,1.47-.94c.49-.22,0,.94.46.73-.08-1.21,1.34-2.16.77-3.44-.13-.88.27-1.79-.07-2.65-.15-.49,1.12-.93.22-.92.08-.93,0-1.86.14-2.79a1.74,1.74,0,0,0,.24-.83c-.45-.81,0-1.77-.42-2.61-.64-.72.32-1,.21-1.64a11.27,11.27,0,0,1-.13-3.23c.11-1.05.57-2.17,0-3.17a2.36,2.36,0,0,1,.6-2.21,4.85,4.85,0,0,0-.18-2.33c1-1.12.84-2.64,1.17-4a10.81,10.81,0,0,0,.35-3.25c.64-1.19,0-2.91,1.1-3.85.6-1.59.38-3.34.86-5a10,10,0,0,1,.2-1.72c.57-1.56.39-3.3,1-4.85-.25-1.16.45-2.19.39-3.33-.64-1.09.31-.89.77-1.08a35.36,35.36,0,0,1,3.51-1.69,6.63,6.63,0,0,0,2.74-1.21c1.48-1.08,3.45-1.45,4.78-2.73a31.6,31.6,0,0,1,7-2.57c2.33-.26,4.51-1.24,6.86-1.44a1,1,0,0,1,1.41-.07.46.46,0,0,1,.07.07c.26,1.35-.26,2.69-.19,4,0,2.64-.39,5.32-.34,7.95-.41,2.24-.17,4.53-.46,6.79-.1,3.86-.4,7.72-.18,11.58a9.15,9.15,0,0,0-.06,2.56,49.33,49.33,0,0,0-.29,12.2c.34.92.13,2.32,1.16,2.84.73.12,1.4.61,2.14.37.91.29,1.27-1.08,2.17-.83.3-.16,0-.45,0-.69a16.92,16.92,0,0,0,1.78-1.49.83.83,0,0,1,.8-.86h.15a.88.88,0,0,0,.48.76c.26-.73-.14-1.6.25-2.26a1.5,1.5,0,0,1,.91,1.93,1,1,0,0,1-.09.21c.58,0,.14-.86.86-.76-.07-.52,0-1.17.73-1-.42,1.81.34.9.62.49.06-.52.12-1,.14-1.58a1.53,1.53,0,0,1,1.35.33c.1.48.33,1,.47,1.51.65-.34,0-1.19.42-1.66a4.61,4.61,0,0,0,1.17.07,14,14,0,0,1,0-2.59c.1-.36.47-.12.73-.13a1.93,1.93,0,0,1-.12-1.21c-.44,0-.4.55-.72.72a3.82,3.82,0,0,1,.13-2.22c-.69,0-.21-.54.1-.72.07-1,.71-1.83.56-2.87a11.49,11.49,0,0,0-1.08,1.9c-.57.35-.25-.38-.08-.62.29-.45-.47-.64-.42-1.06a1.37,1.37,0,0,1,.74-.37,20,20,0,0,0-.43-2.31c2,.48.35-.56.94-1.09.19-.26-.25-.41-.29-.64a35,35,0,0,0,0-3.83c-.72-.9.52-1.14.41-1.87-.66-.06-.53.81-.9,1.14a11.88,11.88,0,0,1,.35-3.71c-.35-1,.23-1.91.32-2.87-.1-.31-.37-.76.09-.91a1.44,1.44,0,0,0,0-1.15c-.06-.77.27-1.55.2-2.33a5.9,5.9,0,0,0,1-1.57c.25-.57,1-.94.37-1.72l-.34.07a3.86,3.86,0,0,1-.59,1.42c-.94-.23.26-1.55-.64-1.82a1.5,1.5,0,0,1,.25-2c.16-1.11-.28-2.36.36-3.38.13-1.45-.5-3.17.29-4.53-.13-.26-.7-.54-.35-.83,1-.76,1.18-2.13,1.53-3.28-.6.15-.58-1,0-.75.85.23.13-1.26.34-1.49-.47,0-.61-.82,0-.71s-.14-.93-.1-1.34c.69,0,.81-.8,1.19-1.26.21-.34-.4-.36-.57-.52a6.63,6.63,0,0,1,0-1.78l-.54.2c-.28-1-.93-2-.37-3a7,7,0,0,1,.93-4.2c.33-1.25.11-2.63.72-3.82.39-.76.14-1.65.41-2.44a6.54,6.54,0,0,0,.68-3.31c.71-2,.45-4.28,1.29-6.27.15-1.2,1-2.18,1-3.42-.2-.86.67-1.45.35-2.33a14.88,14.88,0,0,0,.94-4.19c.15-.61.31-1.21.46-1.82.56-1.07.28-2.33.66-3.44.13-.78.47-1.52.56-2.31-.15-.91.66-1.66.34-2.54-.22-1.28.6-2.34.73-3.58.39-5,2.13-9.92,1.89-15a5.59,5.59,0,0,0-.36-2.53c-.37-.87-.3-2-1.16-2.63A18.32,18.32,0,0,1,119.75,50c-2.12-1.08-4.43-1.7-6.53-2.8a3.21,3.21,0,0,0-2.21-.33c-.5.54-.92,1.54-1.9,1-1.75,0-3.75,1.35-3.61,3.29-.83.64-2.08,1.32-1.53,2.63.4.74-.34,1.33-.17,2a13.7,13.7,0,0,1,1.35,1.69,41.11,41.11,0,0,1-1.22,7.22,86.19,86.19,0,0,1-5.47,7.68C95.67,76,93,79.73,90.27,83.4a12.65,12.65,0,0,1-1.87,2.72,1,1,0,0,0,1,1,1,1,0,0,0,.52-.15,19.62,19.62,0,0,0,3-2.69c.29-.94,1.51-1.07,1.87-2,2.66-2.6,4.89-5.6,7.47-8.27,0,3.91-1.18,7.72-1.32,11.63-.55,1.08-.27,2.34-.64,3.47-.25,2.73-.93,5.42-1,8.16a26.87,26.87,0,0,0-.68,6.26c-.56,1.15-.41,2.49-.63,3.72-.13.66.17,1.4-.2,2-.46,2.88-.67,5.8-1.06,8.7a1,1,0,0,1-.51.5c-6.82.8-13.61,1.83-20.32,3.3a10.11,10.11,0,0,0-4.16.87c-1.32.92-1-.32-.93-.9.48-2.15.12-4.39.57-6.52a18.34,18.34,0,0,1,.31-4.31c0-2.94.49-5.85.52-8.76a31.18,31.18,0,0,0,.61-5c.09-2.57.59-5.11.62-7.7.68-2.8,0-5.8,1-8.56a2.43,2.43,0,0,1-.22-.92,37.59,37.59,0,0,0,.47-5.51A6.11,6.11,0,0,0,75,72a58.17,58.17,0,0,1,.76-6.84c.28-.89-.11-1.86.26-2.72s.16-2.08.53-3a15.48,15.48,0,0,0,.38-3.59,6.72,6.72,0,0,0,.27-2.52c0-2.72-.19-5.43-.24-8.14h.09c.37-.21.22-1-.22-.92h0c-.38-.78-.49-1.73-1.28-2.23a8.65,8.65,0,0,0-4.17-1.63c-1.29-.09-2.57-.28-3.84-.49a12.65,12.65,0,0,0-3.49-1.78,2.35,2.35,0,0,0-1.74-.26A5.29,5.29,0,0,0,60.62,39c-1.45.33-2,2-2.71,3.11.12.92-.56,1.59-1,2.34A8.19,8.19,0,0,0,56.8,46c-.24,1.37,1.48,1.81,1.63,3-.52,4.29-1.12,8.55-1.51,12.8-.7,4.64-.66,9.38-1.2,14-.48,9.75-1.83,19.44-2.22,29.21-.32,2.56-.26,5.16-.68,7.71-.49,6.88-1.74,13.7-2.46,20.56-1,8.72-2.26,17.39-3.24,26.11-.59,8.39-1.37,16.79-1,25.22.06.81.08,1.64.1,2.46A100,100,0,0,1,8.63,108.8C8.63,53.71,52.68,9.05,107,9.05a96.9,96.9,0,0,1,47.35,12.32c-2.22.38-4.4-.67-6.63-.27a24.19,24.19,0,0,0-3.28-.46c-1.29.37-2.6-.34-3.9-.11a18.28,18.28,0,0,0-4-.06c-1.08-.57-2.37-.22-3.54-.43-1.13.37-2.33.08-3.49.31-.88-.29-1.8.16-2.68-.12-2.25.11-4.5.54-6.75.22-1.52.25-3.07.28-4.57.66a29.9,29.9,0,0,0-7.32,1.28c-1.6.53-3.59,0-5,1.12a13.72,13.72,0,0,0-6.56,2.4,4.28,4.28,0,0,0-2.79,2.31,15,15,0,0,1,.51,3.13c.57,2.17,1,4.36,1.73,6.5.25.82.49,1.88,1.37,2.3a6.23,6.23,0,0,0,3.21,2.26,7.48,7.48,0,0,0,3.08.76,11.67,11.67,0,0,0,2.83-.84c2.26,0,4.12-1.49,6.35-1.62,1.49-.07,2.91-.58,4.39-.74l.18-.23a3.66,3.66,0,0,0,2.74-.14c2,.07,4-.44,6-.2,2-.39,3.94-.16,5.93-.47,1.3.38,2.59-.24,3.9-.28-.14,3.32-1.12,6.56-1.65,9.84-1.06,6.8-2.13,13.58-3,20.42-.58,3.21-.72,6.48-1.37,9.69-.52,1.52-.2,3.16-.69,4.69-.17,3-.68,6-1.09,9,0,2.57-.86,5-.89,7.62-1.26,7.09-2.27,14.23-3.61,21.31-1.93,11.28-3.94,22.57-4.89,34a3.65,3.65,0,0,1-.17,1.88,109.32,109.32,0,0,0-.62,18c-.24,1.22,1.22,1.47,1.7,2.38s1.83.75,2.77.9c.47.12.75-.42,1.17-.47a2.8,2.8,0,0,0,1,0,1.19,1.19,0,0,0,.86.49c.85-.27,1.81.29,2.61-.25,1.75-1.09,4.24.41,5.76-1.17a4.49,4.49,0,0,0,2.55-2.31.93.93,0,0,0,.9-.73,22.61,22.61,0,0,0,.9-5.77c-.13-2.8.89-5.45.85-8.23.28-1.42-.18-2.93.5-4.28a1.62,1.62,0,0,0,0-.95,32.26,32.26,0,0,1,.92-5.43c-.23-1.85.46-3.63.58-5.46a21.22,21.22,0,0,1,.87-5c-.31-1.48.31-3,.61-4.42-.16-1.74.46-3.42.57-5.14a68.42,68.42,0,0,0,1-8.44c.73-2.93.9-6,1.51-8.9.6-3.51,1-7,1.37-10.58a24.65,24.65,0,0,0,.71-4.09c.17-2.75,1-5.43.92-8.18.19-.84.9-1.6.53-2.46a28.3,28.3,0,0,0,.76-3.88c.33-.48,0-1,.28-1.52.39-.87-.07-1.92.47-2.71,0-.73.65-1.41.36-2.14-.13-1,.83-1.73.69-2.72.51-2.77.82-5.55,1.26-8.32-.08-1.45.86-2.69.78-4.13.18-.89.71-1.8.35-2.7,0-.57.57-1.05.43-1.64-.25-.79.56-1.39.55-2.15.32-1.69,0-3.44.52-5.09.42-1,0-2,.29-2.94.24-.71-.14-1.49.27-2.15.4-1.1.22-2.32.61-3.43a2.59,2.59,0,0,1,1.79-1,43.56,43.56,0,0,1,6.36.07,1.77,1.77,0,0,1,1.29-.24,34.22,34.22,0,0,1,4.43.27c.72-.45,1.53-.1,2.32-.31,1.66,0,3.31,0,5-.09a100,100,0,0,1,27.42,69m22.47-87.68c-.28-1.16-1.78-1.29-2.77-1.28-3.79,1.08-7.73,1.62-11.55,2.53-2.59.4-5.22.51-7.8,1a6.66,6.66,0,0,0-2.27,0,38.35,38.35,0,0,1-6.34.07,5.6,5.6,0,0,1-2,0c-1.24.31-2.46-.39-3.68-.07-1.76-.51-3.59.24-5.35-.14-2.33,0-4.65-.37-7-.45-1.2-.19-2.43.07-3.62-.27s-2.2.08-3.29-.18h-.48A105.3,105.3,0,0,0,107,0C47.9,0,0,48.75,0,108.86S47.93,217.7,107,217.7,214,169,214,108.86a109.48,109.48,0,0,0-24.65-69.47,10.45,10.45,0,0,1,2.9-.2c1.29-.32,2.67-1.16,4-.71.69-.87,1.93.39,2.58-.51a4.67,4.67,0,0,0,1.81-.6c.51-.58,2.11.53,2.24-.46.46.52,1.14.26,1.74.16-.12-.92.79-.53,1.45-.45.25-.64,1-.52,1.48-.93a7.71,7.71,0,0,0,2.44.2v-.6c-.37,0-1.22.53-1-.18,1.49.91.64-.56,1.24-.61l.56-.06A2.35,2.35,0,0,1,212.34,33a1.57,1.57,0,0,0,1.43-.64,1.88,1.88,0,0,0,1.38-.09c-.14-.55-.67-.23-1.05-.18.4-.42,1-.63.91-1.33a7.7,7.7,0,0,0,4.08-2.59c.73.25.79-1,1.41-1.07a1.27,1.27,0,0,0,.67-.56,2,2,0,0,0,1.27-.78,19.71,19.71,0,0,0,2.8-2.27,9.82,9.82,0,0,0,2.61-2.28" transform="translate(-0.01 -0.02)"/>
                <path class="cls-4" d="M392.39,161.8H371.73l7.54-23.4c.41-1.15.85-2.51,1.34-4.08s.95-3.26,1.4-5.08q.74,2.74,1.45,5c.48,1.54,1,2.87,1.4,4ZM330.5,143.34a10.48,10.48,0,0,1-2.48,4,11.43,11.43,0,0,1-4.27,2.62,18,18,0,0,1-6.17,1H310.1v-23.9h7.6q6.92,0,10.28,2.93c2.24,1.95,3.36,4.74,3.35,8.35a15.22,15.22,0,0,1-.81,5m86.07,46.55-27-74.17h-15l-25.36,69.58L335.46,162.9a14.12,14.12,0,0,0-2.29-2.65,14.68,14.68,0,0,0-2.62-1.87A23.77,23.77,0,0,0,337,155a22.15,22.15,0,0,0,4.72-4.8,21,21,0,0,0,2.93-6,24.68,24.68,0,0,0-.56-15.61,17,17,0,0,0-4.94-6.81,24,24,0,0,0-8.69-4.44,44.46,44.46,0,0,0-12.73-1.59H295.31v74.17h14.75V161.38h5a6.29,6.29,0,0,1,2.93.56,5.24,5.24,0,0,1,1.87,1.9L333.38,187a6.05,6.05,0,0,0,5.42,3H359a4.69,4.69,0,0,0,3.1-1,5.34,5.34,0,0,0,1.7-2.26l4.64-14.52h27.31l4.69,14.58a5.53,5.53,0,0,0,1.73,2.32,4.93,4.93,0,0,0,3.13.92h11.28Z" transform="translate(-0.01 -0.02)"/>
            </g>
            <polygon class="cls-4" points="238.95 115.73 238.95 127.68 258.94 127.68 258.94 189.89 273.57 189.89 273.57 127.68 293.57 127.68 293.57 115.73 238.95 115.73"/>
            <g class="cls-2">
                <path class="cls-4" d="M459.76,172.24a7,7,0,0,0-1.14.75,18.46,18.46,0,0,1-2.79,2.51,14.37,14.37,0,0,1-3,1.65,14,14,0,0,1-3.43.89,30,30,0,0,1-4.13.25,15.67,15.67,0,0,1-7.2-1.7,17.05,17.05,0,0,1-5.84-5,25.21,25.21,0,0,1-3.94-8,37.15,37.15,0,0,1-1.45-10.79,40.18,40.18,0,0,1,1.31-10.75,24.44,24.44,0,0,1,3.71-8A15.77,15.77,0,0,1,445,127.38a18,18,0,0,1,6.14.89,19.18,19.18,0,0,1,4,2,27.86,27.86,0,0,1,2.68,2,3.56,3.56,0,0,0,2.26.89,2.91,2.91,0,0,0,1.81-.5,7.55,7.55,0,0,0,1.14-1.12l4.92-6.87a28.69,28.69,0,0,0-9.61-7A31.26,31.26,0,0,0,445.14,115a32.25,32.25,0,0,0-13.52,2.79,31,31,0,0,0-10.56,7.82,35.75,35.75,0,0,0-6.84,12,46,46,0,0,0-2.41,15.17A49.08,49.08,0,0,0,414.07,168a35.77,35.77,0,0,0,6.48,12,29.38,29.38,0,0,0,10.25,7.87,31.72,31.72,0,0,0,13.57,2.82,32.42,32.42,0,0,0,14.38-3,26.61,26.61,0,0,0,10.08-8.6L463,172.8a2.68,2.68,0,0,0-2-.89,2.52,2.52,0,0,0-1.2.31" transform="translate(-0.01 -0.02)"/>
                <path class="cls-4" d="M484.23,115.75H469.54v74.17h14.69V157.58h3.63a6.85,6.85,0,0,1,3.15.61,5.48,5.48,0,0,1,2,2l14.8,27a6.81,6.81,0,0,0,2,2,6.93,6.93,0,0,0,3.66.75h13L507,155.26a16,16,0,0,0-2.57-3,9.53,9.53,0,0,0-3-1.79,12.82,12.82,0,0,0,4.41-4.19L525,115.73H512.21a8.73,8.73,0,0,0-3.6.67,6.91,6.91,0,0,0-2.71,2.35l-14.59,25.54c-.93,1.49-2.52,2.23-4.75,2.23h-2.35V115.75Z" transform="translate(-0.01 -0.02)"/>
                <path class="cls-4" d="M569.66,122.8a26.84,26.84,0,0,0-9.3-5.81,32.84,32.84,0,0,0-11.81-2.07,25.92,25.92,0,0,0-10,1.82,22.46,22.46,0,0,0-7.4,4.83,20.42,20.42,0,0,0-4.58,6.9,21.3,21.3,0,0,0-1.56,8,23.54,23.54,0,0,0,1.37,8.6,17.7,17.7,0,0,0,3.6,5.81,18,18,0,0,0,5.11,3.77,47.57,47.57,0,0,0,5.86,2.43q3,1,5.86,1.87a27.63,27.63,0,0,1,5.11,2.07,11,11,0,0,1,3.6,3,7.46,7.46,0,0,1,1.37,4.64c0,3.33-.93,5.87-2.79,7.6s-4.46,2.56-7.79,2.49a15.75,15.75,0,0,1-6-1,26,26,0,0,1-4.41-2.29c-1.27-.84-2.37-1.6-3.32-2.29a4.7,4.7,0,0,0-2.76-1,3.8,3.8,0,0,0-3.24,1.84l-4.36,7a25.19,25.19,0,0,0,4.8,4,35.44,35.44,0,0,0,5.81,3.07,34.83,34.83,0,0,0,6.39,2,32.49,32.49,0,0,0,6.67.7,27.47,27.47,0,0,0,10.53-1.9,22.93,22.93,0,0,0,7.79-5.17A21.74,21.74,0,0,0,569,176a26.89,26.89,0,0,0,1.65-9.44,20.22,20.22,0,0,0-1.37-7.88,16.87,16.87,0,0,0-3.63-5.47,20.92,20.92,0,0,0-5.14-3.71,50.45,50.45,0,0,0-5.89-2.57c-2-.73-4-1.39-5.89-2a33,33,0,0,1-5.14-2.15A11.83,11.83,0,0,1,540,140a6.27,6.27,0,0,1-1.37-4.16,8.54,8.54,0,0,1,2.54-6.42c1.69-1.64,4.22-2.46,7.57-2.46a14.9,14.9,0,0,1,5,.78,25.11,25.11,0,0,1,3.82,1.7c1.1.61,2.06,1.18,2.88,1.7a4.37,4.37,0,0,0,2.29.78,3.5,3.5,0,0,0,1.87-.47,3.83,3.83,0,0,0,1.31-1.59Z" transform="translate(-0.01 -0.02)"/>
                <path class="cls-4" d="M519.65,39.5h-7.71v74.17h13v-44q0-3-.33-6.42L561,111.11a7.49,7.49,0,0,0,2.26,1.93,6.36,6.36,0,0,0,2.88.59h7.54V39.5H560.8V83q0,3.3.33,7L524.56,41.8a15.09,15.09,0,0,0-1.09-1.17,3.67,3.67,0,0,0-2.21-1,12.56,12.56,0,0,0-1.62-.08m-57.9,0v74.17H507l.06-11.67H476.49v-20h23.74V70.8H476.49V51.2H507V39.5H461.75ZM442,87.27a23.18,23.18,0,0,1-4.16,8,17.71,17.71,0,0,1-6.62,5,21.56,21.56,0,0,1-8.82,1.73H410.11V51.11H422.4a21.23,21.23,0,0,1,8.82,1.76,17.94,17.94,0,0,1,6.62,5.05,23.35,23.35,0,0,1,4.16,8,35.91,35.91,0,0,1,1.45,10.61A36.5,36.5,0,0,1,442,87.23m13.79-25.61a33.9,33.9,0,0,0-7.29-11.73,32.88,32.88,0,0,0-11.37-7.65,38.53,38.53,0,0,0-14.74-2.74h-27v74.17h27a38.53,38.53,0,0,0,14.74-2.74,32.88,32.88,0,0,0,11.37-7.65,34,34,0,0,0,7.29-11.76,44.76,44.76,0,0,0,0-29.91M375.72,87.22a23.18,23.18,0,0,1-4.16,8,17.71,17.71,0,0,1-6.62,5,21.56,21.56,0,0,1-8.82,1.73H343.83V51.11h12.29a21.23,21.23,0,0,1,8.82,1.76,17.94,17.94,0,0,1,6.62,5.05,23.35,23.35,0,0,1,4.16,8,35.91,35.91,0,0,1,1.45,10.61,36.5,36.5,0,0,1-1.45,10.7m13.79-25.61a33.9,33.9,0,0,0-7.29-11.73,32.88,32.88,0,0,0-11.37-7.65,38.53,38.53,0,0,0-14.74-2.74h-27v74.17h27a38.53,38.53,0,0,0,14.74-2.74,32.88,32.88,0,0,0,11.37-7.65,34,34,0,0,0,7.29-11.76,44.76,44.76,0,0,0,0-29.91m-69-22.12H305.82v74.17h14.74V39.5Zm-23.1,0h-14.7V71.16h-30V39.5H237.92v74.17h14.74V81.55h30v32.11H297.4V39.5Z" transform="translate(-0.01 -0.02)"/>
            </g>
        </g>
    </g>
</svg>